<?xml version="1.0" encoding="utf-8"?>
<svg id="master-artboard" viewBox="0 0 1400 980" version="1.1" xmlns="http://www.w3.org/2000/svg" x="0px" y="0px" style="enable-background:new 0 0 1400 980;" width="1400px" height="980px"><metadata id="metadata6399">
    
  </metadata><path id="path906" d="m 77.577777,67.354878 c 0,-1.309841 0.56591,-4.54954 1.03122,-5.9035 0.59557,-1.73299 2.80334,-5.80754 4.00547,-7.39231 1.86519,-2.45886 4.76401,-5.06989 7.12459,-6.417291 2.89221,-1.65083 5.27172,-2.52013 8.64476,-3.15813 1.30772,-0.24735 2.479893,-0.55195 2.604833,-0.67689 0.2553,-0.2553 0.0687,-1.2162 -0.35309,-1.81843 -0.12789,-0.18259 -0.23253,-0.60195 -0.23253,-0.93191 0,-0.47873 0.13557,-0.7323 0.67108,-1.25522 0.36909,-0.36041 0.61227,-0.7141 0.5404,-0.78597 -0.22854,-0.22854 -1.36689,0.19766 -1.990633,0.74531 -0.57686,0.50649 -0.59809,0.56423 -0.50575,1.37546 l 0.0964,0.84678 -0.51488,-0.56849 c -0.43295,-0.47804 -0.49963,-0.66247 -0.41904,-1.15907 0.27679,-1.7057 3.113303,-2.70161 5.595273,-1.96454 0.99806,0.29639 2.23347,1.49392 2.23347,2.16498 0,0.59902 -0.71033,1.34645 -1.67332,1.76072 -0.88605,0.38116 -1.42087,0.97477 -1.25879,1.39714 0.10556,0.27509 0.91622,0.55841 2.09295,0.73146 1.16841,0.17183 3.52597,0.72405 4.36364,1.0221 1.48777,0.52938 5.80921,2.75208 6.79722,3.496111 4.34302,3.270529 7.44666,7.56052 9.14703,12.64343 0.74318,2.2216 1.16684,4.28118 1.17105,5.693028 l 0.004,1.216793 H 102.16567 77.578177 Z m 6.21681,-3.21818 c 0.91151,-4.49484 3.40356,-9.11093 6.87166,-12.728531 1.70972,-1.783409 2.99955,-2.785729 4.64761,-3.61161 1.17103,-0.58684 1.4419,-0.86271 0.84705,-0.86271 -1.24954,0 -4.78934,1.667781 -6.8743,3.23885 -3.99864,3.013061 -8.21042,9.564031 -9.02026,14.030011 -0.10285,0.567169 -0.13955,1.10798 -0.0816,1.201799 0.0631,0.102071 0.75457,0.151371 1.72148,0.122729 l 1.61604,-0.0479 z m 4.07185,0.29371 c 0.23594,-2.68494 1.56529,-5.97238 3.7157,-9.18884 1.02004,-1.525721 4.46014,-5.23902 5.32911,-5.752331 0.61962,-0.366029 0.59515,-0.54224 -0.0747,-0.53771 -2.4156,0.0163 -6.92792,4.393101 -9.20792,8.931331 -1.22863,2.44554 -2.16275,5.55171 -2.16275,7.19169 v 0.48873 h 1.15049 1.15048 z" style="fill: rgb(255, 255, 255); fill-opacity: 1; stroke-width: 0.167833;" transform="matrix(13.63027286529541, 0, 0, 13.63027286529541, -693.8630981445312, -386.61944580078125)"/><path style="fill: rgb(255, 255, 255); fill-opacity: 1; stroke-width: 0.187089;" d="m 89.347157,88.534152 -7.73351,-0.05099 -0.77903,-0.540496 c -0.42846,-0.297276 -1.0263,-0.801477 -1.32852,-1.120448 l -0.5495,-0.579945 h 11.07324 11.073233 v -0.814846 -0.814845 l -1.262853,-0.119269 c -0.69456,-0.0656 -4.29368,-0.126177 -7.99804,-0.134622 -9.98529,-0.02275 -18.39353,-0.266346 -19.16369,-0.55516 -0.63946,-0.239802 -0.64017,-0.241411 -0.18709,-0.42005 0.61599,-0.242869 60.535223,-0.245583 61.147333,-0.0028 0.43689,0.17331 0.42798,0.187272 -0.3071,0.481394 -0.41637,0.166597 -1.41865,0.35297 -2.22729,0.414157 -3.25138,0.246023 -2.94704,0.110384 -5.02297,2.238666 l -1.87285,1.920092 -10.00924,0.11951 c -5.50508,0.06573 -11.60885,0.09951 -13.56393,0.07506 -1.955083,-0.02445 -7.034763,-0.06739 -11.288193,-0.09544 z" id="path1489" transform="matrix(13.63027286529541, 0, 0, 13.63027286529541, -707.2601488552067, -523.4100101762742)"/><path style="fill: rgb(255, 255, 255); fill-opacity: 1; stroke-width: 0.187089;" d="m 88.750787,104.15601 c -0.14456,-0.33165 -1.25113,-6.021211 -1.79206,-9.214116 l -0.0951,-0.561266 2.86345,-1.201922 c 5.05822,-2.123173 4.6249,-2.043713 11.880093,-2.17855 l 6.32463,-0.117547 0.41462,0.614934 c 0.64663,0.959041 0.17454,1.292945 -2.86789,2.028399 -2.41468,0.583708 -4.95262,1.330547 -5.544773,1.631659 -0.68622,0.348946 -0.71718,1.233115 -0.0583,1.66483 0.528803,0.346482 3.784503,0.63047 7.330633,0.639429 l 2.26771,0.0057 1.84824,-0.817536 c 1.96051,-0.867195 9.23536,-3.779242 10.85815,-4.3464 0.78633,-0.27482 1.0549,-0.296378 1.44994,-0.116388 0.68844,0.313672 0.60933,0.856888 -0.24561,1.686579 -0.89691,0.870426 -11.52321,8.016655 -12.93517,8.698945 -0.97739,0.4723 -1.22391,0.50174 -5.7916,0.69146 -10.399893,0.43196 -12.407263,0.56852 -13.844563,0.94184 -1.77208,0.46028 -1.84066,0.45861 -2.06241,-0.0501 z" id="path1491" transform="matrix(13.63027286529541, 0, 0, 13.63027286529541, -693.8631591796875, -522.1920266077993)"/><path style="fill: rgb(255, 255, 255); fill-opacity: 1; stroke: rgb(255, 255, 255); stroke-width: 0.187089; stroke-opacity: 1;" d="m 76.716397,109.48722 c -0.048,-0.0776 -0.14913,-3.56689 -0.2248,-7.75392 l -0.13758,-7.612789 0.44762,-0.08932 c 0.91954,-0.183478 4.9597,-0.680008 5.53128,-0.679786 0.50524,1.96e-4 0.62223,0.09068 0.78645,0.608269 0.40788,1.285531 2.84501,12.565926 2.79192,12.922526 -0.0443,0.29762 -0.3478,0.45169 -1.45911,0.74075 -0.77174,0.20074 -2.76342,0.73407 -4.42595,1.18519 -3.34435,0.90746 -3.18845,0.87548 -3.30983,0.67908 z m 6.25346,-3.02498 c 0.80885,-0.80886 0.71776,-2.26177 -0.18527,-2.95509 -0.52633,-0.40411 -1.61713,-0.28539 -2.24692,0.24454 -1.27784,1.07523 -0.3726,3.25742 1.35129,3.25742 0.34079,0 0.73191,-0.19789 1.0809,-0.54687 z" id="path919" transform="matrix(13.63027286529541, 0, 0, 13.63027286529541, -691.4273260858687, -522.1920906361604)"/></svg>